<?xml version="1.0" encoding="UTF-8"?>
<svg xmlns="http://www.w3.org/2000/svg" xmlns:xlink="http://www.w3.org/1999/xlink" width="418.18pt" height="217.23pt" viewBox="0 0 418.18 217.23" version="1.1">
<defs>
<clipPath id="clip1">
  <path d="M 113 197 L 130 197 L 130 217.230469 L 113 217.230469 Z M 113 197 "/>
</clipPath>
<clipPath id="clip2">
  <path d="M 148 197 L 168 197 L 168 217.230469 L 148 217.230469 Z M 148 197 "/>
</clipPath>
<clipPath id="clip3">
  <path d="M 189 197 L 206 197 L 206 217.230469 L 189 217.230469 Z M 189 197 "/>
</clipPath>
<clipPath id="clip4">
  <path d="M 239 197 L 259 197 L 259 217.230469 L 239 217.230469 Z M 239 197 "/>
</clipPath>
<clipPath id="clip5">
  <path d="M 289 197 L 305 197 L 305 217.230469 L 289 217.230469 Z M 289 197 "/>
</clipPath>
<clipPath id="clip6">
  <path d="M 395 153 L 418.179688 153 L 418.179688 184 L 395 184 Z M 395 153 "/>
</clipPath>
</defs>
<g id="surface1">
<path style=" stroke:none;fill-rule:nonzero;fill:rgb(0%,39.599609%,17.599487%);fill-opacity:1;" d="M 209.144531 9.171875 C 262.496094 9.171875 306.078125 34.734375 306.078125 66.089844 C 306.078125 97.457031 262.496094 123.007813 209.144531 123.007813 C 155.71875 123.007813 112.140625 97.457031 112.140625 66.089844 C 112.140625 34.734375 155.71875 9.171875 209.144531 9.171875 "/>
<path style=" stroke:none;fill-rule:nonzero;fill:rgb(81.599426%,63.899231%,24.299622%);fill-opacity:1;" d="M 245.597656 92.5625 C 219.128906 84.535156 205.367188 42.558594 181.835938 32.640625 C 223.109375 32.851563 233.515625 86.28125 245.597656 92.5625 "/>
<path style=" stroke:none;fill-rule:nonzero;fill:rgb(81.599426%,63.899231%,24.299622%);fill-opacity:1;" d="M 217.171875 114.632813 C 182.253906 102.972656 169.128906 53.871094 123.171875 63.164063 C 156.488281 69.167969 167.097656 108.140625 217.171875 114.632813 "/>
<path style=" stroke:none;fill-rule:nonzero;fill:rgb(81.599426%,63.899231%,24.299622%);fill-opacity:1;" d="M 256.488281 101.226563 C 273.960938 85.9375 237.289063 69.867188 237.425781 42.417969 C 237.496094 27.335938 251.742188 23.769531 260.820313 27.546875 C 278.695313 34.949219 269.265625 43.949219 271.507813 48.425781 C 268.71875 41.4375 251.8125 22.515625 243.570313 34.386719 C 231.699219 51.5625 271.292969 62.460938 267.59375 89.632813 C 265.289063 107.164063 238.40625 118.332031 209.914063 94.730469 C 191.132813 79.085938 164.308594 42.28125 137.835938 40.953125 C 180.082031 28.585938 204.878906 73.847656 215.351563 86.695313 C 231.136719 105.765625 248.597656 108.136719 256.488281 101.226563 "/>
<path style=" stroke:none;fill-rule:nonzero;fill:rgb(81.599426%,63.899231%,24.299622%);fill-opacity:1;" d="M 103.347656 65.949219 C 103.347656 102.316406 150.785156 131.898438 209.089844 131.898438 C 267.390625 131.898438 314.828125 102.316406 314.828125 65.949219 C 314.828125 29.585938 267.390625 -0.00390625 209.089844 -0.00390625 C 150.785156 -0.00390625 103.347656 29.585938 103.347656 65.949219 M 107.230469 65.949219 C 107.230469 31.71875 152.929688 3.875 209.089844 3.875 C 265.257813 3.875 310.945313 31.71875 310.945313 65.949219 C 310.945313 100.171875 265.257813 128.019531 209.089844 128.019531 C 152.929688 128.019531 107.230469 100.171875 107.230469 65.949219 "/>
<g clip-path="url(#clip1)" clip-rule="nonzero">
<path style=" stroke:none;fill-rule:nonzero;fill:rgb(0%,0%,0%);fill-opacity:1;" d="M 127.628906 200.613281 C 127.257813 200.285156 126.839844 200.003906 126.378906 199.757813 C 125.914063 199.515625 125.402344 199.320313 124.84375 199.164063 C 124.28125 199.011719 123.683594 198.933594 123.050781 198.933594 C 122.011719 198.933594 121.046875 199.105469 120.152344 199.449219 C 119.257813 199.796875 118.480469 200.320313 117.816406 201.03125 C 117.152344 201.746094 116.632813 202.640625 116.257813 203.738281 C 115.878906 204.832031 115.695313 206.128906 115.695313 207.617188 C 115.695313 208.9375 115.863281 210.128906 116.195313 211.195313 C 116.53125 212.257813 117.019531 213.15625 117.664063 213.886719 C 118.304688 214.613281 119.09375 215.183594 120.023438 215.574219 C 120.949219 215.96875 122.003906 216.164063 123.179688 216.164063 C 123.523438 216.164063 123.894531 216.152344 124.28125 216.117188 C 124.667969 216.085938 125.035156 216.027344 125.394531 215.957031 C 125.757813 215.890625 126.085938 215.789063 126.40625 215.6875 C 126.710938 215.574219 126.972656 215.453125 127.1875 215.304688 C 127.210938 214.769531 127.21875 214.21875 127.234375 213.683594 C 127.238281 213.140625 127.238281 212.59375 127.238281 212.03125 C 127.238281 211.402344 127.234375 210.769531 127.203125 210.136719 C 127.179688 209.507813 127.148438 208.898438 127.113281 208.328125 C 127.53125 208.410156 127.9375 208.457031 128.320313 208.457031 C 128.503906 208.457031 128.683594 208.449219 128.871094 208.425781 C 129.058594 208.410156 129.234375 208.382813 129.402344 208.328125 C 129.359375 208.742188 129.335938 209.394531 129.324219 210.289063 C 129.304688 211.179688 129.300781 212.355469 129.300781 213.816406 C 129.300781 214.175781 129.300781 214.546875 129.3125 214.914063 C 129.320313 215.28125 129.324219 215.652344 129.324219 216.007813 C 128.980469 216.152344 128.539063 216.304688 128.007813 216.449219 C 127.480469 216.605469 126.921875 216.738281 126.324219 216.835938 C 125.730469 216.9375 125.136719 217.019531 124.546875 217.101563 C 123.949219 217.1875 123.40625 217.230469 122.925781 217.230469 C 121.433594 217.230469 120.089844 217.03125 118.894531 216.640625 C 117.695313 216.257813 116.683594 215.65625 115.84375 214.847656 C 115.011719 214.03125 114.363281 213.027344 113.914063 211.816406 C 113.464844 210.605469 113.234375 209.210938 113.234375 207.617188 C 113.234375 206.089844 113.46875 204.722656 113.933594 203.519531 C 114.40625 202.320313 115.066406 201.304688 115.921875 200.46875 C 116.773438 199.652344 117.804688 199.015625 119.019531 198.589844 C 120.230469 198.152344 121.570313 197.933594 123.050781 197.933594 C 123.902344 197.933594 124.660156 197.984375 125.324219 198.078125 C 125.984375 198.179688 126.566406 198.308594 127.078125 198.472656 C 127.585938 198.636719 128.035156 198.8125 128.421875 198.992188 C 128.804688 199.171875 129.144531 199.34375 129.453125 199.503906 C 129.316406 199.757813 129.195313 200.082031 129.085938 200.46875 C 128.980469 200.878906 128.90625 201.242188 128.871094 201.582031 L 128.570313 201.582031 C 128.320313 201.265625 128.007813 200.9375 127.628906 200.613281 "/>
</g>
<path style=" stroke:none;fill-rule:nonzero;fill:rgb(0%,0%,0%);fill-opacity:1;" d="M 135.539063 201.75 C 135.492188 200.59375 135.449219 199.4375 135.398438 198.285156 C 136.148438 198.324219 136.898438 198.355469 137.640625 198.382813 C 138.390625 198.40625 139.136719 198.417969 139.894531 198.417969 C 140.644531 198.417969 141.390625 198.40625 142.125 198.382813 C 142.863281 198.355469 143.605469 198.324219 144.359375 198.285156 C 144.308594 198.554688 144.28125 198.828125 144.28125 199.097656 C 144.28125 199.371094 144.308594 199.636719 144.359375 199.910156 C 143.824219 199.875 143.339844 199.839844 142.894531 199.804688 C 142.449219 199.757813 141.976563 199.730469 141.484375 199.691406 C 140.992188 199.65625 140.453125 199.625 139.863281 199.605469 C 139.28125 199.570313 138.582031 199.550781 137.757813 199.550781 C 137.742188 200.132813 137.722656 200.6875 137.695313 201.203125 C 137.667969 201.734375 137.65625 202.328125 137.65625 202.988281 C 137.65625 203.699219 137.664063 204.382813 137.667969 205.050781 C 137.683594 205.71875 137.683594 206.21875 137.683594 206.566406 C 138.421875 206.566406 139.078125 206.558594 139.667969 206.539063 C 140.25 206.523438 140.785156 206.5 141.269531 206.472656 C 141.757813 206.441406 142.203125 206.417969 142.617188 206.386719 C 143.023438 206.359375 143.414063 206.332031 143.785156 206.292969 C 143.730469 206.566406 143.703125 206.84375 143.703125 207.132813 C 143.703125 207.402344 143.730469 207.675781 143.785156 207.941406 C 143.351563 207.894531 142.839844 207.847656 142.265625 207.8125 C 141.683594 207.777344 141.109375 207.75 140.53125 207.742188 C 139.953125 207.734375 139.410156 207.71875 138.898438 207.710938 C 138.390625 207.703125 137.984375 207.699219 137.683594 207.699219 C 137.683594 207.867188 137.683594 208.039063 137.667969 208.230469 C 137.664063 208.417969 137.65625 208.660156 137.65625 208.949219 L 137.65625 211.625 C 137.65625 212.65625 137.664063 213.503906 137.667969 214.164063 C 137.683594 214.832031 137.691406 215.34375 137.707031 215.6875 L 139.464844 215.6875 C 140.101563 215.6875 140.726563 215.667969 141.332031 215.644531 C 141.941406 215.613281 142.523438 215.578125 143.066406 215.535156 C 143.609375 215.484375 144.082031 215.417969 144.484375 215.339844 C 144.453125 215.460938 144.429688 215.601563 144.425781 215.753906 C 144.414063 215.902344 144.410156 216.046875 144.410156 216.171875 C 144.410156 216.460938 144.433594 216.691406 144.484375 216.875 C 143.730469 216.839844 142.980469 216.824219 142.242188 216.824219 L 137.683594 216.824219 C 136.929688 216.824219 136.171875 216.839844 135.398438 216.875 C 135.449219 215.71875 135.492188 214.570313 135.539063 213.429688 C 135.578125 212.273438 135.605469 211.113281 135.605469 209.925781 L 135.605469 205.269531 C 135.605469 204.070313 135.578125 202.902344 135.539063 201.75 "/>
<g clip-path="url(#clip2)" clip-rule="nonzero">
<path style=" stroke:none;fill-rule:nonzero;fill:rgb(0%,0%,0%);fill-opacity:1;" d="M 149.316406 203.519531 C 149.777344 202.320313 150.421875 201.3125 151.25 200.476563 C 152.078125 199.648438 153.070313 199.015625 154.226563 198.582031 C 155.378906 198.144531 156.644531 197.933594 158.019531 197.933594 C 159.402344 197.933594 160.675781 198.144531 161.828125 198.582031 C 162.988281 199.015625 163.976563 199.648438 164.808594 200.476563 C 165.636719 201.3125 166.277344 202.320313 166.738281 203.519531 C 167.199219 204.722656 167.429688 206.085938 167.429688 207.621094 C 167.429688 209.152344 167.199219 210.519531 166.738281 211.71875 C 166.277344 212.921875 165.636719 213.9375 164.808594 214.761719 C 163.976563 215.589844 162.988281 216.210938 161.828125 216.617188 C 160.675781 217.027344 159.402344 217.230469 158.019531 217.230469 C 156.644531 217.230469 155.378906 217.027344 154.226563 216.617188 C 153.070313 216.210938 152.078125 215.589844 151.25 214.761719 C 150.421875 213.9375 149.777344 212.921875 149.316406 211.71875 C 148.859375 210.519531 148.625 209.152344 148.625 207.621094 C 148.625 206.085938 148.859375 204.722656 149.316406 203.519531 M 164.4375 203.738281 C 164.09375 202.644531 163.605469 201.746094 162.976563 201.03125 C 162.351563 200.316406 161.605469 199.792969 160.765625 199.449219 C 159.917969 199.105469 159.003906 198.933594 158.019531 198.933594 C 157.042969 198.933594 156.136719 199.105469 155.292969 199.449219 C 154.449219 199.792969 153.714844 200.316406 153.085938 201.03125 C 152.457031 201.746094 151.96875 202.644531 151.617188 203.738281 C 151.261719 204.832031 151.082031 206.125 151.082031 207.621094 C 151.082031 209.117188 151.261719 210.410156 151.617188 211.5 C 151.96875 212.59375 152.457031 213.5 153.085938 214.210938 C 153.714844 214.921875 154.449219 215.457031 155.292969 215.789063 C 156.136719 216.136719 157.042969 216.308594 158.019531 216.308594 C 159.003906 216.308594 159.917969 216.136719 160.765625 215.789063 C 161.605469 215.457031 162.351563 214.921875 162.976563 214.210938 C 163.605469 213.5 164.09375 212.59375 164.4375 211.5 C 164.796875 210.410156 164.96875 209.117188 164.96875 207.621094 C 164.96875 206.125 164.796875 204.832031 164.4375 203.738281 "/>
</g>
<path style=" stroke:none;fill-rule:nonzero;fill:rgb(0%,0%,0%);fill-opacity:1;" d="M 172.761719 201.789063 C 172.722656 200.644531 172.675781 199.476563 172.621094 198.28125 C 173.113281 198.324219 173.589844 198.359375 174.058594 198.382813 C 174.523438 198.40625 175.003906 198.425781 175.488281 198.425781 C 175.972656 198.425781 176.449219 198.398438 176.921875 198.359375 C 177.382813 198.308594 177.863281 198.28125 178.347656 198.28125 C 179.050781 198.28125 179.71875 198.359375 180.355469 198.5 C 180.988281 198.648438 181.550781 198.882813 182.03125 199.21875 C 182.503906 199.550781 182.882813 199.988281 183.15625 200.53125 C 183.429688 201.074219 183.570313 201.746094 183.570313 202.558594 C 183.570313 203.421875 183.386719 204.171875 183.035156 204.792969 C 182.671875 205.414063 182.230469 205.933594 181.714844 206.339844 C 181.191406 206.746094 180.632813 207.050781 180.039063 207.28125 C 179.453125 207.503906 178.914063 207.660156 178.425781 207.730469 C 178.621094 207.996094 178.898438 208.378906 179.253906 208.863281 C 179.601563 209.355469 180.003906 209.890625 180.4375 210.476563 C 180.867188 211.0625 181.320313 211.675781 181.789063 212.3125 C 182.257813 212.953125 182.707031 213.570313 183.140625 214.15625 C 183.578125 214.742188 183.984375 215.277344 184.375 215.765625 C 184.757813 216.253906 185.066406 216.621094 185.300781 216.875 C 185.050781 216.835938 184.800781 216.820313 184.550781 216.820313 L 183.066406 216.820313 C 182.816406 216.820313 182.570313 216.835938 182.339844 216.875 C 182.089844 216.5 181.714844 215.933594 181.199219 215.171875 C 180.6875 214.410156 180.121094 213.601563 179.503906 212.734375 C 178.878906 211.867188 178.246094 211.003906 177.605469 210.144531 C 176.960938 209.292969 176.378906 208.570313 175.839844 207.976563 L 174.886719 207.976563 L 174.886719 209.941406 C 174.886719 211.140625 174.90625 212.3125 174.945313 213.46875 C 174.988281 214.617188 175.039063 215.753906 175.085938 216.875 C 174.699219 216.835938 174.289063 216.820313 173.855469 216.820313 C 173.421875 216.820313 173.011719 216.835938 172.621094 216.875 C 172.675781 215.753906 172.722656 214.617188 172.761719 213.46875 C 172.804688 212.3125 172.824219 211.140625 172.824219 209.941406 L 172.824219 205.292969 C 172.824219 204.101563 172.804688 202.933594 172.761719 201.789063 M 175.648438 206.945313 C 175.925781 206.96875 176.230469 206.972656 176.570313 206.972656 C 177.085938 206.972656 177.628906 206.90625 178.183594 206.785156 C 178.75 206.652344 179.261719 206.433594 179.730469 206.121094 C 180.195313 205.808594 180.589844 205.378906 180.894531 204.851563 C 181.203125 204.3125 181.359375 203.644531 181.359375 202.832031 C 181.359375 202.128906 181.242188 201.542969 180.992188 201.082031 C 180.753906 200.621094 180.445313 200.265625 180.058594 199.988281 C 179.671875 199.71875 179.253906 199.535156 178.796875 199.4375 C 178.347656 199.335938 177.910156 199.28125 177.46875 199.28125 C 176.882813 199.28125 176.398438 199.296875 176.011719 199.328125 C 175.628906 199.351563 175.304688 199.386719 175.039063 199.421875 C 175.003906 200.410156 174.96875 201.394531 174.929688 202.371094 C 174.902344 203.339844 174.886719 204.316406 174.886719 205.292969 L 174.886719 206.835938 C 175.121094 206.886719 175.371094 206.925781 175.648438 206.945313 "/>
<g clip-path="url(#clip3)" clip-rule="nonzero">
<path style=" stroke:none;fill-rule:nonzero;fill:rgb(0%,0%,0%);fill-opacity:1;" d="M 203.488281 200.613281 C 203.113281 200.285156 202.699219 200.003906 202.234375 199.757813 C 201.773438 199.515625 201.265625 199.320313 200.703125 199.164063 C 200.144531 199.011719 199.539063 198.933594 198.910156 198.933594 C 197.871094 198.933594 196.90625 199.105469 196.011719 199.449219 C 195.117188 199.796875 194.335938 200.320313 193.675781 201.03125 C 193.015625 201.746094 192.492188 202.640625 192.117188 203.738281 C 191.738281 204.832031 191.554688 206.128906 191.554688 207.617188 C 191.554688 208.9375 191.71875 210.128906 192.054688 211.195313 C 192.390625 212.257813 192.878906 213.15625 193.523438 213.886719 C 194.164063 214.613281 194.953125 215.183594 195.886719 215.574219 C 196.8125 215.96875 197.859375 216.164063 199.035156 216.164063 C 199.382813 216.164063 199.753906 216.152344 200.140625 216.117188 C 200.523438 216.085938 200.894531 216.027344 201.253906 215.957031 C 201.617188 215.890625 201.949219 215.789063 202.257813 215.6875 C 202.566406 215.574219 202.828125 215.453125 203.046875 215.304688 C 203.0625 214.769531 203.078125 214.21875 203.089844 213.683594 C 203.097656 213.140625 203.105469 212.59375 203.105469 212.03125 C 203.105469 211.402344 203.089844 210.769531 203.0625 210.136719 C 203.039063 209.507813 203.007813 208.898438 202.976563 208.328125 C 203.390625 208.410156 203.796875 208.457031 204.179688 208.457031 C 204.363281 208.457031 204.546875 208.449219 204.730469 208.425781 C 204.917969 208.410156 205.089844 208.382813 205.261719 208.328125 C 205.21875 208.742188 205.195313 209.394531 205.179688 210.289063 C 205.164063 211.179688 205.15625 212.355469 205.15625 213.816406 C 205.15625 214.175781 205.160156 214.546875 205.171875 214.914063 C 205.175781 215.28125 205.179688 215.652344 205.179688 216.007813 C 204.832031 216.152344 204.398438 216.304688 203.867188 216.449219 C 203.339844 216.605469 202.78125 216.738281 202.183594 216.835938 C 201.589844 216.9375 200.996094 217.019531 200.40625 217.101563 C 199.808594 217.1875 199.269531 217.230469 198.785156 217.230469 C 197.296875 217.230469 195.949219 217.03125 194.753906 216.640625 C 193.554688 216.257813 192.546875 215.65625 191.703125 214.847656 C 190.871094 214.03125 190.222656 213.027344 189.773438 211.816406 C 189.316406 210.605469 189.09375 209.210938 189.09375 207.617188 C 189.09375 206.089844 189.328125 204.722656 189.796875 203.519531 C 190.265625 202.320313 190.925781 201.304688 191.78125 200.46875 C 192.628906 199.652344 193.664063 199.015625 194.875 198.589844 C 196.09375 198.152344 197.4375 197.933594 198.910156 197.933594 C 199.757813 197.933594 200.519531 197.984375 201.183594 198.078125 C 201.84375 198.179688 202.425781 198.308594 202.9375 198.472656 C 203.445313 198.636719 203.890625 198.8125 204.28125 198.992188 C 204.664063 199.171875 205.003906 199.34375 205.3125 199.503906 C 205.175781 199.757813 205.054688 200.082031 204.949219 200.46875 C 204.839844 200.878906 204.761719 201.242188 204.730469 201.582031 L 204.433594 201.582031 C 204.179688 201.265625 203.867188 200.9375 203.488281 200.613281 "/>
</g>
<path style=" stroke:none;fill-rule:nonzero;fill:rgb(0%,0%,0%);fill-opacity:1;" d="M 211.398438 201.75 C 211.347656 200.59375 211.308594 199.4375 211.257813 198.285156 C 212.015625 198.324219 212.757813 198.355469 213.503906 198.382813 C 214.25 198.40625 214.996094 198.417969 215.75 198.417969 C 216.503906 198.417969 217.253906 198.40625 217.984375 198.382813 C 218.722656 198.355469 219.464844 198.324219 220.226563 198.285156 C 220.171875 198.554688 220.144531 198.828125 220.144531 199.097656 C 220.144531 199.371094 220.171875 199.636719 220.226563 199.910156 C 219.683594 199.875 219.199219 199.839844 218.753906 199.804688 C 218.308594 199.757813 217.84375 199.730469 217.347656 199.691406 C 216.851563 199.65625 216.3125 199.625 215.726563 199.605469 C 215.140625 199.570313 214.441406 199.550781 213.617188 199.550781 C 213.601563 200.132813 213.582031 200.6875 213.558594 201.203125 C 213.53125 201.734375 213.523438 202.328125 213.523438 202.988281 C 213.523438 203.699219 213.523438 204.382813 213.53125 205.050781 C 213.542969 205.71875 213.546875 206.21875 213.546875 206.566406 C 214.28125 206.566406 214.941406 206.558594 215.527344 206.539063 C 216.113281 206.523438 216.644531 206.5 217.132813 206.472656 C 217.621094 206.441406 218.066406 206.417969 218.480469 206.386719 C 218.886719 206.359375 219.273438 206.332031 219.644531 206.292969 C 219.59375 206.566406 219.566406 206.84375 219.566406 207.132813 C 219.566406 207.402344 219.59375 207.675781 219.644531 207.941406 C 219.210938 207.894531 218.703125 207.847656 218.128906 207.8125 C 217.546875 207.777344 216.96875 207.75 216.394531 207.742188 C 215.816406 207.734375 215.277344 207.71875 214.761719 207.710938 C 214.25 207.703125 213.839844 207.699219 213.546875 207.699219 C 213.546875 207.867188 213.542969 208.039063 213.53125 208.230469 C 213.523438 208.417969 213.523438 208.660156 213.523438 208.949219 L 213.523438 211.625 C 213.523438 212.65625 213.523438 213.503906 213.53125 214.164063 C 213.542969 214.832031 213.550781 215.34375 213.570313 215.6875 L 215.324219 215.6875 C 215.960938 215.6875 216.585938 215.667969 217.195313 215.644531 C 217.804688 215.613281 218.382813 215.578125 218.929688 215.535156 C 219.472656 215.484375 219.941406 215.417969 220.34375 215.339844 C 220.308594 215.460938 220.289063 215.601563 220.285156 215.753906 C 220.273438 215.902344 220.269531 216.046875 220.269531 216.171875 C 220.269531 216.460938 220.296875 216.691406 220.34375 216.875 C 219.59375 216.839844 218.84375 216.824219 218.101563 216.824219 L 213.546875 216.824219 C 212.789063 216.824219 212.03125 216.839844 211.257813 216.875 C 211.308594 215.71875 211.347656 214.570313 211.398438 213.429688 C 211.441406 212.273438 211.460938 211.113281 211.460938 209.925781 L 211.460938 205.269531 C 211.460938 204.070313 211.441406 202.902344 211.398438 201.75 "/>
<path style=" stroke:none;fill-rule:nonzero;fill:rgb(0%,0%,0%);fill-opacity:1;" d="M 229.308594 199.691406 C 228.871094 199.691406 228.417969 199.695313 227.9375 199.707031 C 227.457031 199.714844 226.984375 199.734375 226.507813 199.757813 C 226.035156 199.785156 225.574219 199.820313 225.125 199.855469 C 224.683594 199.894531 224.289063 199.9375 223.933594 199.988281 C 224.015625 199.664063 224.066406 199.378906 224.066406 199.121094 C 224.066406 198.921875 224.015625 198.648438 223.933594 198.28125 C 225.039063 198.324219 226.117188 198.355469 227.171875 198.382813 C 228.226563 198.40625 229.308594 198.425781 230.410156 198.425781 C 231.515625 198.425781 232.59375 198.40625 233.648438 198.382813 C 234.703125 198.355469 235.78125 198.324219 236.886719 198.28125 C 236.804688 198.648438 236.761719 198.9375 236.761719 199.148438 C 236.761719 199.390625 236.804688 199.664063 236.886719 199.988281 C 236.539063 199.9375 236.144531 199.894531 235.699219 199.855469 C 235.253906 199.820313 234.789063 199.785156 234.316406 199.757813 C 233.835938 199.734375 233.363281 199.714844 232.886719 199.707031 C 232.40625 199.695313 231.945313 199.691406 231.515625 199.691406 C 231.46875 201.554688 231.441406 203.421875 231.441406 205.296875 L 231.441406 209.949219 C 231.441406 211.136719 231.460938 212.3125 231.5 213.46875 C 231.542969 214.617188 231.59375 215.753906 231.644531 216.875 C 231.257813 216.839844 230.84375 216.820313 230.410156 216.820313 C 229.976563 216.820313 229.566406 216.839844 229.179688 216.875 C 229.230469 215.753906 229.277344 214.617188 229.320313 213.46875 C 229.359375 212.3125 229.378906 211.136719 229.378906 209.949219 L 229.378906 205.296875 C 229.378906 203.421875 229.359375 201.554688 229.308594 199.691406 "/>
<g clip-path="url(#clip4)" clip-rule="nonzero">
<path style=" stroke:none;fill-rule:nonzero;fill:rgb(0%,0%,0%);fill-opacity:1;" d="M 240.089844 203.519531 C 240.550781 202.320313 241.195313 201.3125 242.019531 200.476563 C 242.851563 199.648438 243.839844 199.015625 245 198.582031 C 246.152344 198.144531 247.414063 197.933594 248.785156 197.933594 C 250.183594 197.933594 251.449219 198.144531 252.601563 198.582031 C 253.753906 199.015625 254.75 199.648438 255.578125 200.476563 C 256.40625 201.3125 257.050781 202.320313 257.511719 203.519531 C 257.96875 204.722656 258.203125 206.085938 258.203125 207.621094 C 258.203125 209.152344 257.96875 210.519531 257.511719 211.71875 C 257.050781 212.921875 256.40625 213.9375 255.578125 214.761719 C 254.75 215.589844 253.753906 216.210938 252.601563 216.617188 C 251.449219 217.027344 250.183594 217.230469 248.785156 217.230469 C 247.414063 217.230469 246.152344 217.027344 245 216.617188 C 243.839844 216.210938 242.851563 215.589844 242.019531 214.761719 C 241.195313 213.9375 240.550781 212.921875 240.089844 211.71875 C 239.632813 210.519531 239.398438 209.152344 239.398438 207.621094 C 239.398438 206.085938 239.632813 204.722656 240.089844 203.519531 M 255.214844 203.738281 C 254.859375 202.644531 254.371094 201.746094 253.742188 201.03125 C 253.117188 200.316406 252.386719 199.792969 251.535156 199.449219 C 250.691406 199.105469 249.777344 198.933594 248.785156 198.933594 C 247.820313 198.933594 246.910156 199.105469 246.066406 199.449219 C 245.222656 199.792969 244.484375 200.316406 243.851563 201.03125 C 243.226563 201.746094 242.734375 202.644531 242.390625 203.738281 C 242.03125 204.832031 241.859375 206.125 241.859375 207.621094 C 241.859375 209.117188 242.03125 210.410156 242.390625 211.5 C 242.734375 212.59375 243.226563 213.5 243.851563 214.210938 C 244.484375 214.921875 245.222656 215.457031 246.066406 215.789063 C 246.910156 216.136719 247.820313 216.308594 248.785156 216.308594 C 249.777344 216.308594 250.691406 216.136719 251.535156 215.789063 C 252.386719 215.457031 253.117188 214.921875 253.742188 214.210938 C 254.371094 213.5 254.859375 212.59375 255.214844 211.5 C 255.570313 210.410156 255.746094 209.117188 255.746094 207.621094 C 255.746094 206.125 255.570313 204.832031 255.214844 203.738281 "/>
</g>
<path style=" stroke:none;fill-rule:nonzero;fill:rgb(0%,0%,0%);fill-opacity:1;" d="M 265.820313 214.738281 C 265.542969 213.761719 265.230469 212.660156 264.875 211.4375 C 264.527344 210.207031 264.15625 208.925781 263.773438 207.585938 C 263.390625 206.238281 263.023438 204.953125 262.664063 203.738281 C 262.316406 202.519531 261.996094 201.421875 261.707031 200.453125 C 261.40625 199.476563 261.179688 198.753906 261.011719 198.285156 C 261.230469 198.316406 261.4375 198.355469 261.636719 198.382813 C 261.84375 198.40625 262.050781 198.421875 262.265625 198.421875 C 262.484375 198.421875 262.691406 198.40625 262.898438 198.382813 C 263.09375 198.355469 263.308594 198.316406 263.519531 198.285156 C 263.839844 199.65625 264.152344 200.941406 264.449219 202.144531 C 264.753906 203.339844 265.070313 204.558594 265.421875 205.800781 C 265.757813 207.027344 266.128906 208.328125 266.523438 209.691406 C 266.914063 211.050781 267.363281 212.59375 267.863281 214.304688 L 267.910156 214.304688 C 268.066406 213.816406 268.277344 213.144531 268.539063 212.289063 C 268.8125 211.429688 269.105469 210.484375 269.421875 209.445313 C 269.742188 208.410156 270.070313 207.339844 270.425781 206.210938 C 270.78125 205.09375 271.101563 204.027344 271.40625 203.007813 C 271.703125 201.988281 271.972656 201.0625 272.203125 200.222656 C 272.4375 199.386719 272.609375 198.738281 272.710938 198.285156 C 273.042969 198.375 273.316406 198.421875 273.53125 198.421875 C 273.753906 198.421875 274.03125 198.375 274.363281 198.285156 C 274.484375 198.773438 274.660156 199.4375 274.90625 200.285156 C 275.152344 201.140625 275.417969 202.078125 275.726563 203.117188 C 276.023438 204.152344 276.34375 205.234375 276.6875 206.351563 C 277.03125 207.46875 277.363281 208.539063 277.679688 209.570313 C 278 210.597656 278.285156 211.527344 278.550781 212.355469 C 278.804688 213.191406 279.011719 213.835938 279.167969 214.304688 L 279.210938 214.304688 C 279.328125 213.90625 279.507813 213.285156 279.753906 212.453125 C 279.992188 211.609375 280.273438 210.664063 280.582031 209.609375 C 280.890625 208.550781 281.210938 207.441406 281.535156 206.285156 C 281.859375 205.117188 282.171875 204.011719 282.46875 202.953125 C 282.753906 201.898438 283.011719 200.957031 283.242188 200.121094 C 283.464844 199.296875 283.621094 198.679688 283.710938 198.285156 C 283.851563 198.316406 284.003906 198.355469 284.144531 198.382813 C 284.285156 198.40625 284.433594 198.421875 284.585938 198.421875 C 284.730469 198.421875 284.882813 198.40625 285.023438 198.382813 C 285.167969 198.355469 285.3125 198.316406 285.464844 198.285156 C 285.300781 198.703125 285.054688 199.386719 284.730469 200.34375 C 284.417969 201.300781 284.058594 202.386719 283.664063 203.617188 C 283.273438 204.84375 282.867188 206.136719 282.441406 207.507813 C 282.011719 208.886719 281.601563 210.1875 281.210938 211.425781 C 280.8125 212.660156 280.464844 213.761719 280.152344 214.753906 C 279.847656 215.738281 279.613281 216.441406 279.464844 216.875 C 279.195313 216.84375 278.90625 216.824219 278.609375 216.824219 C 278.3125 216.824219 278.023438 216.84375 277.753906 216.875 C 277.007813 214.367188 276.261719 211.851563 275.527344 209.3125 C 274.78125 206.777344 273.996094 204.15625 273.140625 201.453125 L 273.085938 201.453125 C 272.953125 201.863281 272.769531 202.425781 272.546875 203.117188 C 272.320313 203.808594 272.066406 204.59375 271.789063 205.457031 C 271.515625 206.320313 271.21875 207.25 270.902344 208.242188 C 270.585938 209.230469 270.261719 210.238281 269.949219 211.25 C 269.628906 212.257813 269.324219 213.253906 269.015625 214.226563 C 268.71875 215.195313 268.445313 216.082031 268.191406 216.875 C 267.925781 216.84375 267.632813 216.824219 267.316406 216.824219 C 266.996094 216.824219 266.707031 216.84375 266.4375 216.875 C 266.300781 216.425781 266.09375 215.71875 265.820313 214.738281 "/>
<g clip-path="url(#clip5)" clip-rule="nonzero">
<path style=" stroke:none;fill-rule:nonzero;fill:rgb(0%,0%,0%);fill-opacity:1;" d="M 298.113281 209.855469 C 295.933594 207.335938 293.761719 204.839844 291.585938 202.34375 C 291.570313 202.847656 291.550781 203.523438 291.535156 204.375 C 291.519531 205.21875 291.515625 206.375 291.515625 207.839844 C 291.515625 208.214844 291.515625 208.679688 291.523438 209.242188 C 291.53125 209.808594 291.539063 210.390625 291.550781 211 C 291.554688 211.617188 291.570313 212.238281 291.585938 212.871094 C 291.601563 213.503906 291.621094 214.089844 291.636719 214.628906 C 291.652344 215.171875 291.671875 215.640625 291.691406 216.050781 C 291.710938 216.457031 291.722656 216.734375 291.738281 216.871094 C 291.46875 216.835938 291.175781 216.820313 290.855469 216.820313 C 290.523438 216.820313 290.214844 216.835938 289.925781 216.871094 C 289.964844 216.691406 290.003906 216.359375 290.042969 215.875 C 290.085938 215.386719 290.121094 214.800781 290.160156 214.128906 C 290.191406 213.453125 290.226563 212.714844 290.265625 211.925781 C 290.304688 211.132813 290.34375 210.335938 290.367188 209.542969 C 290.398438 208.75 290.417969 207.972656 290.433594 207.214844 C 290.449219 206.457031 290.457031 205.78125 290.457031 205.183594 C 290.457031 203.457031 290.453125 201.960938 290.441406 200.722656 C 290.4375 199.476563 290.417969 198.550781 290.382813 197.933594 L 290.78125 197.933594 C 291.804688 199.125 292.894531 200.398438 294.0625 201.761719 C 295.21875 203.125 296.371094 204.472656 297.523438 205.796875 C 298.667969 207.117188 299.753906 208.375 300.789063 209.558594 C 301.816406 210.730469 302.71875 211.742188 303.484375 212.574219 L 303.484375 208.886719 C 303.484375 207.003906 303.472656 205.152344 303.445313 203.355469 C 303.425781 201.5625 303.367188 199.875 303.28125 198.285156 C 303.621094 198.378906 303.902344 198.425781 304.136719 198.425781 C 304.339844 198.425781 304.613281 198.378906 304.941406 198.285156 C 304.90625 198.679688 304.867188 199.277344 304.828125 200.078125 C 304.785156 200.867188 304.742188 201.714844 304.703125 202.613281 C 304.664063 203.519531 304.628906 204.402344 304.585938 205.269531 C 304.550781 206.132813 304.539063 206.832031 304.539063 207.351563 L 304.539063 208.972656 C 304.539063 209.585938 304.539063 210.226563 304.550781 210.894531 C 304.554688 211.5625 304.566406 212.234375 304.578125 212.90625 C 304.582031 213.585938 304.589844 214.214844 304.597656 214.800781 C 304.613281 215.390625 304.617188 215.902344 304.617188 216.335938 L 304.617188 217.222656 L 304.265625 217.222656 C 302.339844 214.828125 300.285156 212.371094 298.113281 209.855469 "/>
</g>
<path style=" stroke:none;fill-rule:nonzero;fill:rgb(0%,0%,0%);fill-opacity:1;" d="M 19.53125 155.441406 L 19.234375 152.367188 C 19.089844 150.914063 18.886719 150.386719 17.039063 149.132813 C 15.640625 148.222656 13.542969 147.84375 11.589844 147.84375 C 8.097656 147.84375 4.203125 150.386719 4.203125 155.710938 C 4.203125 159.367188 6.191406 161.632813 12.441406 162.394531 C 19.488281 163.191406 23.933594 165.089844 23.933594 171.226563 C 23.933594 180.421875 16.285156 184.84375 8.84375 184.84375 C 5.34375 184.84375 1.953125 183.664063 0.296875 182.796875 C 0.699219 179.996094 0.699219 177.097656 0.652344 174.558594 L 2.25 174.558594 L 2.648438 178.160156 C 2.894531 180.421875 6.84375 182.476563 10.792969 182.476563 C 15.285156 182.476563 19.734375 179.511719 19.734375 174.179688 C 19.734375 169.066406 16.039063 167.605469 10.941406 166.964844 C 3.09375 165.992188 0 163.363281 0 157.753906 C 0 149.40625 6.792969 145.585938 12.785156 145.585938 C 16.78125 145.585938 19.785156 146.980469 21.832031 147.84375 C 21.332031 150.59375 21.136719 152.898438 21.136719 155.441406 "/>
<path style=" stroke:none;fill-rule:nonzero;fill:rgb(0%,0%,0%);fill-opacity:1;" d="M 37.96875 159.246094 C 37.96875 157.621094 37.886719 156.496094 37.605469 156.023438 C 37.363281 155.59375 36.882813 155.40625 35.921875 155.371094 L 34.003906 155.246094 L 34.003906 153.957031 C 36.082031 154.039063 37.96875 154.078125 39.925781 154.078125 C 41.757813 154.078125 43.640625 154.039063 45.71875 153.957031 L 45.71875 155.246094 L 43.796875 155.371094 C 42.839844 155.40625 42.351563 155.59375 42.117188 156.023438 C 41.839844 156.496094 41.757813 157.621094 41.757813 159.246094 L 41.757813 174.070313 C 41.757813 180.1875 44.722656 181.953125 49.992188 181.953125 C 54.3125 181.953125 58.226563 180.1875 58.226563 173.035156 L 58.226563 159.246094 C 58.226563 157.621094 58.152344 156.496094 57.867188 156.023438 C 57.625 155.59375 57.15625 155.464844 56.191406 155.371094 L 54.425781 155.246094 L 54.425781 153.957031 C 56.023438 153.996094 57.625 154.078125 59.070313 154.078125 C 60.667969 154.078125 62.105469 153.996094 63.863281 153.957031 L 63.863281 155.246094 L 62.105469 155.371094 C 61.15625 155.464844 60.667969 155.59375 60.433594 156.023438 C 60.148438 156.496094 60.0625 157.621094 60.0625 159.246094 L 60.0625 171.710938 C 60.0625 180.917969 56.828125 184.628906 48.75 184.628906 C 41.972656 184.628906 37.96875 182.4375 37.96875 174.542969 "/>
<path style=" stroke:none;fill-rule:nonzero;fill:rgb(0%,0%,0%);fill-opacity:1;" d="M 75.902344 159.246094 C 75.902344 157.621094 75.820313 156.496094 75.535156 156.023438 C 75.296875 155.59375 74.8125 155.464844 73.859375 155.371094 L 72.097656 155.246094 L 72.097656 153.957031 C 73.859375 153.996094 75.457031 154.078125 76.898438 154.078125 C 77.617188 154.078125 78.332031 153.996094 79.054688 153.957031 L 98.167969 179.378906 L 98.285156 179.378906 L 98.285156 159.246094 C 98.285156 157.621094 98.203125 156.496094 97.925781 156.023438 C 97.679688 155.59375 97.207031 155.464844 96.242188 155.371094 L 94.480469 155.246094 L 94.480469 153.957031 C 96.078125 153.996094 97.679688 154.078125 99.121094 154.078125 C 100.71875 154.078125 102.160156 153.996094 103.914063 153.957031 L 103.914063 155.246094 L 102.160156 155.371094 C 101.199219 155.464844 100.71875 155.59375 100.476563 156.023438 C 100.199219 156.496094 100.113281 157.621094 100.113281 159.246094 L 100.113281 183.027344 C 100.113281 183.546875 100.199219 184.117188 100.246094 184.628906 L 96.640625 183.9375 L 77.820313 158.738281 L 77.730469 158.738281 L 77.730469 178.601563 C 77.730469 180.226563 77.820313 181.351563 78.089844 181.816406 C 78.332031 182.257813 78.8125 182.378906 79.777344 182.480469 L 81.535156 182.601563 L 81.535156 183.890625 C 79.777344 183.851563 78.332031 183.769531 76.734375 183.769531 C 75.296875 183.769531 73.695313 183.851563 72.097656 183.890625 L 72.097656 182.601563 L 73.859375 182.480469 C 74.8125 182.378906 75.296875 182.257813 75.535156 181.816406 C 75.820313 181.351563 75.902344 180.226563 75.902344 178.601563 "/>
<path style=" stroke:none;fill-rule:nonzero;fill:rgb(0%,0%,0%);fill-opacity:1;" d="M 130.9375 160.679688 L 123.988281 179.71875 C 123.472656 181.179688 122.941406 182.644531 122.546875 184.164063 L 120.546875 184.164063 C 120.269531 182.554688 119.945313 181.226563 119.628906 179.71875 L 114.863281 157.523438 C 114.46875 155.679688 113.710938 155.460938 112.871094 155.371094 L 111.75 155.242188 L 111.75 153.953125 C 113.429688 153.996094 115.078125 154.078125 116.789063 154.078125 C 118.507813 154.078125 120.144531 153.996094 121.828125 153.953125 L 121.828125 155.242188 L 120.144531 155.371094 C 119.105469 155.460938 118.304688 155.679688 118.824219 158.210938 L 122.785156 177.429688 L 122.863281 177.429688 L 127.785156 163.996094 C 129.011719 160.582031 130.304688 157.136719 131.382813 153.613281 L 132.652344 153.613281 C 133.015625 155.339844 133.734375 157.316406 134.296875 159.039063 L 140.496094 177.730469 L 140.574219 177.730469 L 145.804688 156.785156 C 146.042969 155.765625 145.492188 155.507813 143.976563 155.371094 L 142.371094 155.242188 L 142.371094 153.953125 C 143.773438 153.996094 145.128906 154.078125 146.574219 154.078125 C 148.003906 154.078125 149.367188 153.996094 150.765625 153.953125 L 150.765625 155.242188 L 149.484375 155.371094 C 148.609375 155.460938 148.171875 155.886719 147.96875 156.621094 L 141.847656 179.800781 C 141.527344 181.054688 141.089844 182.382813 140.765625 184.164063 L 138.769531 184.164063 C 137.894531 180.761719 136.9375 178.242188 135.933594 175.285156 "/>
<path style=" stroke:none;fill-rule:nonzero;fill:rgb(0%,0%,0%);fill-opacity:1;" d="M 180.515625 178.074219 C 180.875 178.9375 181.316406 180.101563 181.792969 181.011719 C 182.238281 181.816406 182.664063 182.386719 183.390625 182.476563 L 184.753906 182.601563 L 184.753906 183.890625 C 182.988281 183.851563 181.230469 183.769531 179.4375 183.769531 C 178.046875 183.769531 176.269531 183.851563 174.113281 183.890625 L 174.113281 182.601563 L 176 182.476563 C 176.839844 182.4375 177.632813 182.132813 177.632813 181.609375 C 177.632813 181.011719 177.199219 179.886719 176.796875 178.851563 L 174.957031 173.898438 L 163.445313 173.898438 L 162.332031 176.785156 C 161.96875 177.6875 160.925781 180.578125 160.925781 181.273438 C 160.925781 182.179688 161.601563 182.34375 162.84375 182.476563 L 164.328125 182.601563 L 164.328125 183.890625 C 162.410156 183.851563 160.886719 183.769531 159.726563 183.769531 C 158.164063 183.769531 156.652344 183.851563 155.128906 183.890625 L 155.128906 182.601563 L 156.609375 182.476563 C 157.566406 182.386719 158.332031 181.480469 158.765625 180.363281 L 165.890625 162.925781 C 167.121094 159.890625 168.480469 156.710938 169.558594 153.605469 L 170.839844 153.605469 Z M 174.238281 172.175781 L 169.210938 159.335938 L 164.121094 172.175781 "/>
<path style=" stroke:none;fill-rule:nonzero;fill:rgb(0%,0%,0%);fill-opacity:1;" d="M 202.503906 169.074219 L 206.621094 162.050781 C 208.214844 159.335938 209.617188 156.613281 210.933594 153.863281 L 214.128906 153.863281 L 214.128906 154.511719 C 210.78125 158.695313 205.945313 165.976563 204.308594 169.808594 C 203.820313 170.929688 203.746094 171.992188 203.746094 173.035156 L 203.746094 178.59375 C 203.746094 180.230469 203.820313 181.351563 204.105469 181.816406 C 204.34375 182.261719 204.820313 182.4375 205.785156 182.476563 L 207.703125 182.601563 L 207.703125 183.890625 C 205.628906 183.808594 203.746094 183.769531 201.90625 183.769531 C 199.945313 183.769531 198.070313 183.808594 195.984375 183.890625 L 195.984375 182.601563 L 197.90625 182.476563 C 198.863281 182.4375 199.347656 182.261719 199.589844 181.816406 C 199.867188 181.351563 199.945313 180.230469 199.945313 178.59375 L 199.945313 172.488281 C 199.945313 171.800781 199.832031 171.1875 199.589844 170.761719 L 194.632813 161.457031 C 192.550781 157.570313 190.515625 155.972656 189.507813 155.851563 L 188.359375 155.726563 L 188.359375 154.46875 L 192.945313 153.429688 C 193.753906 153.269531 194.347656 154.121094 195.03125 155.027344 C 195.707031 155.933594 196.269531 156.78125 196.789063 157.835938 "/>
<path style=" stroke:none;fill-rule:nonzero;fill:rgb(0%,0%,0%);fill-opacity:1;" d="M 279.484375 177.304688 C 279.484375 179.351563 279.574219 180.761719 279.933594 181.34375 C 280.230469 181.886719 280.832031 182.09375 282.015625 182.152344 L 284.425781 182.308594 L 284.425781 183.929688 C 281.835938 183.816406 279.484375 183.769531 277.1875 183.769531 C 274.738281 183.769531 272.386719 183.816406 269.789063 183.929688 L 269.789063 182.308594 L 272.1875 182.152344 C 273.390625 182.09375 273.988281 181.886719 274.289063 181.34375 C 274.640625 180.761719 274.738281 179.351563 274.738281 177.304688 L 274.738281 165.300781 C 274.140625 165.242188 272.785156 165.195313 270.582031 165.195313 L 258.894531 165.195313 C 256.691406 165.195313 255.351563 165.242188 254.746094 165.300781 L 254.746094 177.304688 C 254.746094 179.351563 254.847656 180.761719 255.199219 181.34375 C 255.507813 181.886719 256.101563 182.09375 257.296875 182.152344 L 259.699219 182.308594 L 259.699219 183.929688 C 257.101563 183.816406 254.746094 183.769531 252.449219 183.769531 C 250.003906 183.769531 247.65625 183.816406 245.058594 183.929688 L 245.058594 182.308594 L 247.449219 182.152344 C 248.652344 182.09375 249.253906 181.886719 249.554688 181.34375 C 249.90625 180.761719 250.003906 179.351563 250.003906 177.304688 L 250.003906 153.128906 C 250.003906 151.078125 249.90625 149.675781 249.554688 149.09375 C 249.253906 148.535156 248.652344 148.328125 247.449219 148.269531 L 245.058594 148.113281 L 245.058594 146.492188 C 247.65625 146.605469 250.003906 146.660156 252.449219 146.660156 C 254.746094 146.660156 257.101563 146.605469 259.699219 146.492188 L 259.699219 148.113281 L 257.296875 148.269531 C 256.101563 148.328125 255.507813 148.535156 255.199219 149.09375 C 254.847656 149.675781 254.746094 151.078125 254.746094 153.128906 L 254.746094 162.714844 C 255.351563 162.765625 256.691406 162.824219 258.894531 162.824219 L 270.582031 162.824219 C 272.785156 162.824219 274.140625 162.765625 274.738281 162.714844 L 274.738281 153.128906 C 274.738281 151.078125 274.640625 149.675781 274.289063 149.09375 C 273.988281 148.535156 273.390625 148.328125 272.1875 148.269531 L 269.789063 148.113281 L 269.789063 146.492188 C 272.386719 146.605469 274.738281 146.660156 277.1875 146.660156 C 279.484375 146.660156 281.835938 146.605469 284.425781 146.492188 L 284.425781 148.113281 L 282.015625 148.269531 C 280.832031 148.328125 280.230469 148.535156 279.933594 149.09375 C 279.574219 149.675781 279.484375 151.078125 279.484375 153.128906 "/>
<path style=" stroke:none;fill-rule:nonzero;fill:rgb(0%,0%,0%);fill-opacity:1;" d="M 294.902344 168.949219 C 294.902344 160.074219 300.660156 153.222656 309.929688 153.222656 C 318.480469 153.222656 324.5625 158.398438 324.5625 167.957031 C 324.5625 177.222656 317.839844 184.632813 309.097656 184.632813 C 300.972656 184.632813 294.902344 178.59375 294.902344 168.949219 M 299.183594 167.34375 C 299.183594 174.886719 302.453125 182.8125 310.363281 182.8125 C 317.046875 182.8125 320.28125 177.222656 320.28125 169.285156 C 320.28125 160.769531 316.730469 155.023438 309.285156 155.023438 C 302.332031 155.023438 299.183594 160.285156 299.183594 167.34375 "/>
<path style=" stroke:none;fill-rule:nonzero;fill:rgb(0%,0%,0%);fill-opacity:1;" d="M 342.589844 160.375 C 342.589844 158.738281 342.542969 157.359375 342.421875 156.058594 L 336.226563 156.058594 C 335.035156 156.058594 334.722656 156.445313 334.640625 157.480469 L 334.472656 160.886719 L 333.226563 160.886719 C 333.226563 158.5625 333.148438 156.191406 332.957031 153.957031 C 335.832031 153.957031 338.707031 154.078125 341.589844 154.078125 L 347.386719 154.078125 C 350.261719 154.078125 353.144531 153.957031 356.023438 153.957031 C 355.820313 156.191406 355.738281 158.5625 355.738281 160.886719 L 354.496094 160.886719 L 354.347656 157.480469 C 354.261719 156.445313 353.933594 156.058594 352.738281 156.058594 L 346.542969 156.058594 C 346.414063 157.359375 346.386719 158.738281 346.386719 160.375 L 346.386719 178.59375 C 346.386719 180.230469 346.460938 181.355469 346.746094 181.816406 C 346.984375 182.257813 347.46875 182.4375 348.421875 182.480469 L 350.34375 182.605469 L 350.34375 183.890625 C 348.261719 183.8125 346.386719 183.773438 344.546875 183.773438 C 342.589844 183.773438 340.714844 183.8125 338.632813 183.890625 L 338.632813 182.605469 L 340.542969 182.480469 C 341.507813 182.4375 341.992188 182.257813 342.238281 181.816406 C 342.503906 181.355469 342.589844 180.230469 342.589844 178.59375 "/>
<path style=" stroke:none;fill-rule:nonzero;fill:rgb(0%,0%,0%);fill-opacity:1;" d="M 368.371094 159.246094 C 368.371094 157.621094 368.289063 156.496094 368.007813 156.023438 C 367.769531 155.59375 367.285156 155.40625 366.328125 155.371094 L 364.410156 155.246094 L 364.410156 153.957031 C 366.609375 153.996094 368.898438 154.078125 371.160156 154.078125 C 374.640625 154.078125 378.324219 153.957031 380.601563 153.957031 C 382.398438 153.957031 384.199219 153.996094 385.753906 154.078125 C 385.320313 155.976563 385.117188 158.429688 385.117188 160.628906 L 383.71875 160.628906 L 383.71875 157.835938 C 383.71875 157.269531 383.671875 156.789063 383.363281 156.667969 C 381.238281 155.808594 378.085938 155.769531 375.523438 155.769531 C 374.441406 155.769531 373.285156 155.808594 372.171875 156.109375 L 372.171875 167.605469 C 373.445313 167.695313 374.875 167.734375 376.800781 167.734375 C 379.242188 167.734375 380.601563 167.5625 381.046875 167.269531 C 381.238281 167.085938 381.320313 166.703125 381.359375 166.148438 L 381.558594 163.902344 L 382.765625 163.902344 C 382.722656 165.667969 382.636719 167.3125 382.636719 168.90625 C 382.636719 170.5 382.722656 172.132813 382.765625 173.683594 L 381.558594 173.683594 L 381.359375 171.144531 C 381.320313 170.582031 381.238281 170.199219 381.046875 170.070313 C 380.601563 169.726563 379.242188 169.550781 376.800781 169.550781 C 374.875 169.550781 373.40625 169.550781 372.171875 169.6875 L 372.171875 181.746094 C 373.285156 182.050781 374.441406 182.09375 375.523438 182.09375 C 378.792969 182.09375 382.875 181.953125 383.601563 181.527344 C 384.199219 181.175781 384.71875 179.28125 385 176.703125 L 386.398438 176.703125 C 385.996094 178.777344 385.753906 181.4375 385.753906 183.769531 C 384.003906 183.8125 380.839844 183.9375 377.890625 183.890625 C 374.808594 183.851563 371.644531 183.769531 369.171875 183.769531 C 367.648438 183.769531 366.328125 183.851563 364.898438 183.890625 L 364.898438 182.601563 L 366.328125 182.480469 C 367.285156 182.378906 367.769531 182.257813 368.007813 181.816406 C 368.289063 181.351563 368.371094 180.226563 368.371094 178.601563 "/>
<g clip-path="url(#clip6)" clip-rule="nonzero">
<path style=" stroke:none;fill-rule:nonzero;fill:rgb(0%,0%,0%);fill-opacity:1;" d="M 403.382813 181.746094 C 404.503906 182.050781 405.660156 182.09375 406.742188 182.09375 C 410.019531 182.09375 414.90625 181.953125 415.578125 181.273438 C 415.972656 180.882813 416.222656 179.421875 416.417969 178.507813 L 416.902344 176.359375 L 418.179688 176.359375 C 417.9375 178.730469 417.65625 181.617188 417.339844 183.769531 C 415.578125 183.8125 412.417969 183.933594 409.460938 183.890625 C 405.867188 183.851563 403.226563 183.769531 400.746094 183.769531 C 399.386719 183.769531 398.386719 183.851563 397.351563 183.890625 L 397.351563 182.910156 L 398.589844 182.214844 C 399.269531 181.824219 399.589844 180.84375 399.589844 179.683594 L 399.589844 159.246094 C 399.589844 157.613281 399.503906 156.503906 399.230469 156.023438 C 398.992188 155.59375 398.519531 155.40625 397.558594 155.371094 L 395.628906 155.242188 L 395.628906 153.949219 C 397.710938 154.039063 399.589844 154.078125 401.542969 154.078125 C 403.382813 154.078125 405.257813 154.039063 407.34375 153.949219 L 407.34375 155.242188 L 405.429688 155.371094 C 404.460938 155.40625 403.984375 155.59375 403.75 156.023438 C 403.46875 156.503906 403.382813 157.613281 403.382813 159.246094 "/>
</g>
</g>
</svg>
